<?xml version="1.0" encoding="iso-8859-1"?>
<!-- Generator: Adobe Illustrator 19.0.0, SVG Export Plug-In . SVG Version: 6.00 Build 0)  -->
<svg version="1.1" id="Capa_1" xmlns="http://www.w3.org/2000/svg" xmlns:xlink="http://www.w3.org/1999/xlink" x="0px" y="0px"
	 viewBox="0 0 512 512" style="enable-background:new 0 0 512 512;" xml:space="preserve">
<path style="fill:#E6646E;" d="M495.06,254.482l-57.383-19.128l-35.182-91.474c-3.68-9.567-12.872-15.881-23.123-15.881H8.258
	C3.697,128,0,131.697,0,136.258v222.968c0,4.561,3.697,8.258,8.258,8.258H470.71l25.717-10.287
	c9.406-3.762,15.573-12.872,15.573-23.002v-56.209C512,267.322,505.176,257.854,495.06,254.482z"/>
<path style="fill:#DC4655;" d="M195.476,289.851L266.286,128H64.037l70.81,161.851c2.387,5.456-1.61,11.568-7.566,11.568H0v57.806
	c0,4.561,3.697,8.258,8.258,8.258H470.71l25.717-10.287c9.406-3.762,15.573-12.872,15.573-23.002v-32.775H203.042
	C197.086,301.419,193.089,295.307,195.476,289.851z"/>
<path style="fill:#867E88;" d="M305.548,169.29v49.548c0,9.122,7.395,16.516,16.516,16.516h115.613l-28.586-74.323h-95.285
	C309.246,161.032,305.548,164.73,305.548,169.29z"/>
<path style="fill:#FFC350;" d="M75.158,112.214l84.076,192.173c2.261,5.169,9.594,5.169,11.855,0l84.076-192.173
	c1.454-3.324-0.076-7.261-3.438-8.622C224.98,92.761,195.793,86.71,165.161,86.71s-59.819,6.051-86.566,16.882
	C75.233,104.953,73.704,108.89,75.158,112.214z"/>
<path style="fill:#FFE17D;" d="M165.161,119.742c-28.257,0-55.047,6.217-79.148,17.284l73.221,167.361
	c2.261,5.169,9.593,5.169,11.855,0l73.221-167.361C220.209,125.959,193.418,119.742,165.161,119.742z"/>
<path style="fill:#FFEDB1;" d="M165.161,202.323c-14.815,7.235-22.194,12.387-46.002,10.467l40.074,91.598
	c2.261,5.169,9.593,5.169,11.855,0l40.074-91.598C201.806,197.161,187.355,191.484,165.161,202.323z"/>
<g>
	<circle style="fill:#FF8587;" cx="134.71" cy="174.8" r="16.516"/>
	<circle style="fill:#FF8587;" cx="172.56" cy="233.98" r="16.516"/>
</g>
<path style="fill:#E6646E;" d="M173.419,164.129c-2.113,0-4.226-0.806-5.839-2.419c-3.226-3.226-3.226-8.452,0-11.677l8.258-8.258
	c3.226-3.226,8.452-3.226,11.677,0c3.226,3.226,3.226,8.452,0,11.677l-8.258,8.258C177.645,163.323,175.532,164.129,173.419,164.129
	z"/>
<g>
	<path style="fill:#DC4655;" d="M161.801,210.065c-4.565,0-8.298-3.694-8.298-8.258c0-4.565,3.653-8.258,8.218-8.258h0.081
		c4.565,0,8.258,3.694,8.258,8.258C170.059,206.371,166.366,210.065,161.801,210.065z"/>
	<path style="fill:#DC4655;" d="M194.753,186.495c-4.565,0-8.298-3.694-8.298-8.258s3.653-8.258,8.218-8.258h0.081
		c4.565,0,8.258,3.694,8.258,8.258S199.317,186.495,194.753,186.495z"/>
</g>
<path style="fill:#6F6571;" d="M415.444,177.548l-6.352-16.516h-95.285c-4.561,0-8.258,3.697-8.258,8.258v8.258h56.917
	c3.555,0,6.71,2.275,7.834,5.647l17.385,52.16h17.403l-19.267-57.806L415.444,177.548L415.444,177.548z"/>
<path style="fill:#FFD164;" d="M79.393,121.895c26.129-11.954,55.156-18.669,85.768-18.669s59.639,6.715,85.768,18.669l4.235-9.681
	c1.454-3.324-0.076-7.261-3.438-8.622C224.98,92.761,195.793,86.71,165.161,86.71s-59.819,6.051-86.566,16.882
	c-3.362,1.361-4.892,5.299-3.438,8.622L79.393,121.895z"/>
<path style="fill:#FFE17D;" d="M512,309.677h-16.516c-4.561,0-8.258-3.697-8.258-8.258v-8.258c0-4.561,3.697-8.258,8.258-8.258H512
	V309.677z"/>
<path style="fill:#C43F4F;" d="M481.12,342.71c-2.04,0-3.96-0.808-5.494-2.153c-10.149-8.905-23.383-14.363-37.949-14.363
	s-27.8,5.458-37.949,14.363c-1.533,1.345-3.454,2.153-5.494,2.153H150.797c-2.04,0-3.96-0.808-5.494-2.153
	c-10.149-8.905-23.383-14.363-37.949-14.363s-27.8,5.458-37.949,14.363c-1.533,1.345-3.454,2.153-5.494,2.153H0v16.516
	c0,4.561,3.697,8.258,8.258,8.258H470.71l25.717-10.287c6.647-2.659,11.621-8.014,14-14.487H481.12z"/>
<circle style="fill:#5D5360;" cx="107.36" cy="384" r="41.29"/>
<circle style="fill:#C9C6CA;" cx="107.36" cy="384" r="24.774"/>
<circle style="fill:#AEA8AF;" cx="107.36" cy="384" r="8.258"/>
<circle style="fill:#5D5360;" cx="437.68" cy="384" r="41.29"/>
<circle style="fill:#C9C6CA;" cx="437.68" cy="384" r="24.774"/>
<circle style="fill:#AEA8AF;" cx="437.68" cy="384" r="8.258"/>
<g>
</g>
<g>
</g>
<g>
</g>
<g>
</g>
<g>
</g>
<g>
</g>
<g>
</g>
<g>
</g>
<g>
</g>
<g>
</g>
<g>
</g>
<g>
</g>
<g>
</g>
<g>
</g>
<g>
</g>
</svg>
