<svg height="512pt" viewBox="0 -39 512.00017 512" width="512pt" xmlns="http://www.w3.org/2000/svg"><path d="m399.1875 433.765625h-69.425781c-4.792969 0-8.675781-3.886719-8.675781-8.679687 0-4.789063 3.882812-8.675782 8.675781-8.675782h69.425781c4.792969 0 8.675781 3.886719 8.675781 8.675782 0 4.792968-3.882812 8.679687-8.675781 8.679687zm0 0" fill="#2c3e50"/><path d="m512 320.910156v43.386719c.027344 4.398437-3.195312 8.140625-7.550781 8.765625l-53.195313 8.765625h-407.863281l-28.117187-8.9375c-3.871094-.957031-6.59375-4.429687-6.59375-8.417969v-26.207031l34.710937-52.070313h425.21875zm0 0" fill="#c03a2b"/><path d="m512 320.910156v26.207032c.027344 4.398437-3.195312 8.140624-7.550781 8.761718l-53.195313 8.765625h-407.863281l-28.117187-8.9375c-3.871094-.957031-6.59375-4.429687-6.59375-8.417969v-9.023437l34.710937-52.070313h425.21875zm0 0" fill="#e64c3c"/><path d="m399.1875 433.765625c-28.757812 0-52.070312-23.3125-52.070312-52.066406 0-28.757813 23.3125-52.070313 52.070312-52.070313 28.753906 0 52.066406 23.3125 52.066406 52.070313-.03125 28.742187-23.324218 52.03125-52.066406 52.066406zm0 0" fill="#2c3e50"/><path d="m156.203125 242.980469c-4.789063 0-8.675781-6.996094-8.675781-15.621094v-46.859375c0-8.625 3.886718-15.621094 8.675781-15.621094s8.679687 6.996094 8.679687 15.621094v46.859375c0 8.625-3.890624 15.621094-8.679687 15.621094zm0 0" fill="#95a5a5"/><path d="m295.050781 242.980469c-4.789062 0-8.679687-6.996094-8.679687-15.621094v-46.859375c0-8.625 3.890625-15.621094 8.679687-15.621094 4.789063 0 8.679688 6.996094 8.679688 15.621094v46.859375c0 8.625-3.890625 15.621094-8.679688 15.621094zm0 0" fill="#95a5a5"/><path d="m364.472656 171.039062c.082032 2.917969-1.027344 5.742188-3.074218 7.820313-2.046876 2.078125-4.855469 3.234375-7.769532 3.203125h-32.023437c0-5.816406-.171875-11.628906-.695313-17.355469-3.28125-50.84375-21.71875-99.539062-52.933594-139.804687l29.675782-22.648438c2.296875-1.769531 5.203125-2.546875 8.074218-2.1562498 2.871094.3945318 5.464844 1.9179688 7.199219 4.2382818 33.5 46.253906 48.25 103.269531 51.203125 160.371093.171875 2.082031.257813 4.25.34375 6.332031zm0 0" fill="#b19046"/><path d="m321.605469 182.0625h-225.105469c-2.875.011719-5.632812-1.128906-7.65625-3.167969-2.023438-2.039062-3.144531-4.808593-3.105469-7.679687.007813-3.277344 1.550781-6.359375 4.164063-8.332032l.261718-.171874 162.886719-126.265626 14.925781-11.542968c31.214844 40.265625 49.652344 88.960937 52.933594 139.804687.523438 5.726563.695313 11.539063.695313 17.355469zm0 0" fill="#802f34"/><path d="m303.207031 182.0625h-206.707031c-2.875.011719-5.632812-1.128906-7.65625-3.167969-2.023438-2.039062-3.144531-4.808593-3.105469-7.679687.007813-3.277344 1.550781-6.359375 4.164063-8.332032l.261718-.171874 102.746094-79.664063 27.683594-21.523437 32.457031-25.078126c27.28125 37.691407 44.050781 81.953126 48.59375 128.261719.695313 5.640625 1.214844 11.367188 1.5625 17.355469zm0 0" fill="#f18d46"/><path d="m407.863281 286.195312h-173.558593v-69.421874h100.492187c2.320313-.007813 4.546875.933593 6.160156 2.601562l14.058594 14.058594zm0 0" fill="#b0d3f0"/><path d="m234.304688 216.773438v69.421874h-104.136719l8.679687-69.421874zm0 0" fill="#90bae1"/><path d="m138.847656 216.773438-8.679687 69.421874h-43.386719l23.949219-63.695312c1.226562-3.449219 4.496093-5.746094 8.15625-5.726562zm0 0" fill="#c03a2b"/><path d="m269.015625 342.429688v39.398437h-17.355469v-39.398437c-.007812-1.347657-.304687-2.679688-.867187-3.90625l-24.210938-48.421876c-.601562-1.214843-.925781-2.546874-.953125-3.90625h18.394532l22.214843 44.519532c1.835938 3.632812 2.785157 7.644531 2.777344 11.714844zm0 0" fill="#c03a2b"/><path d="m512 294.875v26.035156h-27.941406c-3.964844.003906-7.429688-2.671875-8.417969-6.511718l-7.03125-28.203126h34.710937c4.792969 0 8.679688 3.886719 8.679688 8.679688zm0 0" fill="#f0c419"/><path d="m43.390625 286.195312v21.695313c.019531 2.738281-1.269531 5.316406-3.472656 6.945313l-31.238281 23.429687v-31.066406c.015624-2.300781.917968-4.507813 2.515624-6.164063l12.320313-12.234375c1.589844-1.65625 3.78125-2.59375 6.078125-2.605469zm0 0" fill="#f0c419"/><path d="m235.78125 82.003906c.109375 11.71875-9.207031 21.355469-20.921875 21.640625-11.714844.285157-21.488281-8.890625-21.949219-20.597656l27.683594-21.523437c9.027344 2.730468 15.195312 11.050781 15.1875 20.480468zm0 0" fill="#cc4b4c"/><path d="m289.410156 182.234375h-64.304687c-.042969-14.289063 9.363281-26.886719 23.074219-30.90625 13.710937-4.023437 28.429687 1.5 36.109374 13.550781 3.375 5.15625 5.15625 11.191406 5.121094 17.355469zm0 0" fill="#802f34"/><path d="m192.929688 139.21875c0 5.921875-4.804688 10.726562-10.726563 10.726562-5.925781 0-10.726563-4.804687-10.726563-10.726562 0-5.925781 4.800782-10.726562 10.726563-10.726562 5.921875 0 10.726563 4.800781 10.726563 10.726562zm0 0" fill="#24ae5f"/><path d="m278.703125 107.050781c0 5.921875-4.804687 10.722657-10.726563 10.722657-5.925781 0-10.726562-4.800782-10.726562-10.722657 0-5.925781 4.800781-10.726562 10.726562-10.726562 5.921876 0 10.726563 4.800781 10.726563 10.726562zm0 0" fill="#24ae5f"/><path d="m364.128906 164.707031h-43.21875c-3.28125-50.84375-21.71875-99.539062-52.933594-139.804687l29.675782-22.648438c2.296875-1.769531 5.203125-2.546875 8.074218-2.1562498 2.871094.3945318 5.464844 1.9179688 7.199219 4.2382818 33.5 46.253906 48.25 103.269531 51.203125 160.371093zm0 0" fill="#e4c05c"/><path d="m320.910156 164.707031h-224.410156c-2.269531 0-4.480469-.695312-6.335938-1.996093l162.886719-126.265626 14.925781-11.542968c31.214844 40.265625 49.652344 88.960937 52.933594 139.804687zm0 0" fill="#c03a2b"/><path d="m301.644531 164.707031h-205.144531c-2.269531 0-4.480469-.695312-6.335938-1.996093l102.746094-79.664063 27.683594-21.523437 32.457031-25.078126c27.28125 37.691407 44.050781 81.953126 48.59375 128.261719zm0 0" fill="#f3d55b"/><path d="m242.984375 76.363281c.109375 11.71875-9.207031 21.355469-20.921875 21.640625s-21.492188-8.890625-21.949219-20.597656l27.683594-21.523438c9.023437 2.730469 15.195313 11.050782 15.1875 20.480469zm0 0" fill="#cc4b4c"/><path d="m284.289062 164.878906h-54.0625c5.878907-9.242187 16.078126-14.839844 27.03125-14.839844 10.957032 0 21.152344 5.597657 27.03125 14.839844zm0 0" fill="#cc4b4c"/><path d="m192.929688 121.863281c0 5.921875-4.804688 10.726563-10.726563 10.726563-5.925781 0-10.726563-4.804688-10.726563-10.726563 0-5.925781 4.800782-10.726562 10.726563-10.726562 5.921875 0 10.726563 4.800781 10.726563 10.726562zm0 0" fill="#24ae5f"/><path d="m278.703125 89.691406c0 5.925782-4.804687 10.726563-10.726563 10.726563-5.925781 0-10.726562-4.800781-10.726562-10.726563 0-5.921875 4.800781-10.722656 10.726562-10.722656 5.921876 0 10.726563 4.800781 10.726563 10.722656zm0 0" fill="#24ae5f"/><g fill="#2c3e50"><path d="m121.492188 433.765625h-69.425782c-4.792968 0-8.675781-3.886719-8.675781-8.679687 0-4.789063 3.882813-8.675782 8.675781-8.675782h69.425782c4.792968 0 8.675781 3.886719 8.675781 8.675782 0 4.792968-3.882813 8.679687-8.675781 8.679687zm0 0"/><path d="m17.355469 433.894531h-8.675781c-4.792969 0-8.679688-3.882812-8.679688-8.675781s3.886719-8.679688 8.679688-8.679688h8.675781c4.792969 0 8.679687 3.886719 8.679687 8.679688s-3.886718 8.675781-8.679687 8.675781zm0 0"/><path d="m295.050781 433.894531h-8.679687c-4.789063 0-8.675782-3.882812-8.675782-8.675781s3.886719-8.679688 8.675782-8.679688h8.679687c4.792969 0 8.679688 3.886719 8.679688 8.679688s-3.886719 8.675781-8.679688 8.675781zm0 0"/><path d="m121.492188 433.765625c-28.757813 0-52.070313-23.3125-52.070313-52.066406 0-28.757813 23.3125-52.070313 52.070313-52.070313 28.753906 0 52.066406 23.3125 52.066406 52.070313-.03125 28.742187-23.324219 52.03125-52.066406 52.066406zm0 0"/></g><path d="m164.882812 381.699219c0 23.960937-19.429687 43.386719-43.390624 43.386719-23.964844 0-43.390626-19.425782-43.390626-43.386719 0-23.964844 19.425782-43.390625 43.390626-43.390625 23.960937 0 43.390624 19.425781 43.390624 43.390625zm0 0" fill="#35495e"/><path d="m147.394531 381.699219c0 14.304687-11.597656 25.902343-25.902343 25.902343-14.308594 0-25.90625-11.597656-25.90625-25.902343 0-14.308594 11.597656-25.90625 25.90625-25.90625 14.304687 0 25.902343 11.597656 25.902343 25.90625zm0 0" fill="#95a5a5"/><path d="m442.578125 381.699219c0 23.960937-19.429687 43.386719-43.390625 43.386719-23.964844 0-43.390625-19.425782-43.390625-43.386719 0-23.964844 19.425781-43.390625 43.390625-43.390625 23.960938 0 43.390625 19.425781 43.390625 43.390625zm0 0" fill="#35495e"/><path d="m425.089844 381.699219c0 14.304687-11.597656 25.902343-25.902344 25.902343-14.308594 0-25.90625-11.597656-25.90625-25.902343 0-14.308594 11.597656-25.90625 25.90625-25.90625 14.304688 0 25.902344 11.597656 25.902344 25.90625zm0 0" fill="#95a5a5"/><path d="m407.863281 286.195312h-141.449219c19.882813-30.242187 52.539063-49.6875 88.601563-52.761718zm0 0" fill="#90bae1"/></svg>